# xmcd
#
# Track frame offsets:
#	150
#	9633
#	21052
#	30552
#	48759
#	62532
#	76204
#	89812
#	102404
#	120907
#	132162
#	136326
#	150380
#	158090
#	167886
#	176336
#	185754
#	199413
#	212865
#	242692
#	256397
#	263736
#	270639
#	282058
#	289593
#	297896
#
# Disc length: 4057 seconds
#
# Revision: 1
# Processed by: cddbd v1.5.1PL2 Copyright (c) Steve Scherf et al.
# Submitted via: audiograbber 1.83.01
#
DISCID=6b0fd71a
DTITLE=Various Artist - India
DYEAR=2001
DGENRE=
TTITLE0=Rahul Sharma - Kaushik Dhwani
TTITLE1=Brindabani Sarang - Bhairrav
TTITLE2=Hariharan - Jai Durge Durgati Pariharini
TTITLE3=Pandit Shivkumar Sharma and Hariprasad Chaurasia - Love
TTITLE4=Hariharan - Shayan: Morpichchani Rajaai 
TTITLE5=Ashit and Hema Desai - Vaishnav Jan
TTITLE6=Ashit and Hema Desai - Akhil Brahmaandmaan
TTITLE7=Ashit and Hema Desai - Maari Hoondi
TTITLE8=Anup Jalota - Prabhu More - Mandir Dekh
TTITLE9=Lakshmi Shankar - Ab Jago - Vaishnava Jana
TTITLE10=Ustad Amjad Ali Khan - Bhairav - Brindabani Sarang
TTITLE11=Pandit Shivkumar Sharma - Gurjari Todi - Miya Ki Malhar
TTITLE12=Rekha Trivedi - Taliona Tale
TTITLE13=Ustad Abdul Halim Jaffer Khan - Jaijaiwanti
TTITLE14=Satish Vyas - Jog
TTITLE15=The Gundecha Brothers - Charukeshi
TTITLE16=Indranil Bhattacharya and Aahish Khan - Hewm Bihag
TTITLE17=Pandit V G Jog - Kirwani
TTITLE18=Uday Bhawalkar - Puriya (Alap - Dhrupad)
TTITLE19=Pandits Shivkumar Sharma and Hariprasad Chaurasia - Bhoopali
TTITLE20=Pandits Shivkumar Sharma and others - Sa yathema nadayah
TTITLE21=Abida Parveen - Sade verhe aaya kar
TTITLE22=Abida Parveen - Yaar di gharoli
TTITLE23=Abida Parveen - Mast qalandar
TTITLE24=Saraswati Devi - Dhola Dhol Maijira
TTITLE25=Saraswati Devi - Chirmi
EXTD=
EXTT0=
EXTT1=
EXTT2=
EXTT3=
EXTT4=
EXTT5=
EXTT6=
EXTT7=
EXTT8=
EXTT9=
EXTT10=
EXTT11=
EXTT12=
EXTT13=
EXTT14=
EXTT15=
EXTT16=
EXTT17=
EXTT18=
EXTT19=
EXTT20=
EXTT21=
EXTT22=
EXTT23=
EXTT24=
EXTT25=
PLAYORDER=
